# Blender v2.80 (sub 75) OBJ File: ''
# www.blender.org
o D7-AirHockeyPuck
v -45.000000 0.000000 0.000000
v -44.016644 0.000000 -9.356026
v -44.016644 0.000000 9.356026
v -41.109547 0.000000 -18.303148
v -36.405766 0.000000 -26.450336
v -30.110876 0.000000 -33.441517
v -22.500000 0.000000 -38.971142
v -28.284424 0.000000 -20.592239
v -13.905765 0.000000 -42.797543
v -17.463488 0.000000 -30.316259
v -4.703781 0.000000 -44.753487
v -10.778764 0.000000 -33.284637
v 4.703781 0.000000 -44.753487
v 3.691191 0.000000 -34.791149
v 13.905765 0.000000 -42.797543
v 10.844017 0.000000 -33.263435
v 22.500000 0.000000 -38.971142
v 17.522907 0.000000 -30.281954
v 30.110876 0.000000 -33.441517
v 23.435961 0.000000 -25.977003
v 36.405766 0.000000 -26.450336
v 28.324753 0.000000 -20.536734
v 41.109547 0.000000 -18.303148
v 31.975615 0.000000 -14.198910
v 44.016644 0.000000 -9.356026
v 34.986393 0.000000 0.034305
v 45.000000 0.000000 0.000000
v 34.214725 0.000000 7.307636
v 44.016644 0.000000 9.356026
v 31.947708 0.000000 14.261589
v 41.109547 0.000000 18.303148
v 28.284424 0.000000 20.592239
v 36.405766 0.000000 26.450336
v 23.384974 0.000000 26.022913
v 30.110876 0.000000 33.441517
v 10.778764 0.000000 33.284637
v 22.500000 0.000000 38.971142
v 3.657451 0.000000 34.798321
v 13.905765 0.000000 42.797543
v -10.812505 0.000000 33.277466
v 4.703781 0.000000 44.753487
v -17.495001 0.000000 30.302229
v -4.703781 0.000000 44.753487
v -13.905765 0.000000 42.797543
v -22.500000 0.000000 38.971142
v -30.110876 0.000000 33.441517
v -36.405766 0.000000 26.450336
v -41.109547 0.000000 18.303148
v -34.228989 0.000000 7.240524
v -34.990002 0.000000 0.000000
v -34.986393 0.000000 -0.034305
v -31.975615 0.000000 14.198910
v -34.225384 0.000000 7.274830
v -28.324753 0.000000 20.536734
v -31.964956 0.000000 14.231716
v -23.435961 0.000000 25.977003
v -28.307505 0.000000 20.566607
v -17.522907 0.000000 30.281954
v -23.412880 0.000000 26.002638
v -10.844017 0.000000 33.263435
v -3.657451 0.000000 34.798321
v -3.691191 0.000000 34.791149
v 10.812505 0.000000 33.277466
v 17.495001 0.000000 30.302229
v 17.463488 0.000000 30.316259
v 23.412880 0.000000 26.002638
v 28.307505 0.000000 20.566607
v 31.964956 0.000000 14.231716
v 34.225384 0.000000 7.274830
v 34.990002 0.000000 0.000000
v 34.228989 0.000000 -7.240524
v 34.225384 0.000000 -7.274830
v 31.964956 0.000000 -14.231716
v 28.307505 0.000000 -20.566607
v 23.412880 0.000000 -26.002638
v 17.495001 0.000000 -30.302229
v 10.812505 0.000000 -33.277466
v 3.657451 0.000000 -34.798321
v -3.657451 0.000000 -34.798321
v -10.812505 0.000000 -33.277466
v -17.495001 0.000000 -30.302229
v -23.384974 0.000000 -26.022913
v -23.412880 0.000000 -26.002638
v -28.307505 0.000000 -20.566607
v -34.214725 0.000000 -7.307636
v -31.964956 0.000000 -14.231716
v -31.947708 0.000000 -14.261589
v -34.225384 0.000000 -7.274830
v -45.000000 8.000000 0.000000
v -44.016644 8.000000 -9.356026
v -44.016644 8.000000 9.356026
v -41.109547 8.000000 18.303148
v -36.405766 8.000000 26.450336
v -30.110876 8.000000 33.441517
v -22.500000 8.000000 38.971142
v -13.905765 8.000000 42.797543
v -4.703781 8.000000 44.753487
v 4.703781 8.000000 44.753487
v 13.905765 8.000000 42.797543
v 22.500000 8.000000 38.971142
v 30.110876 8.000000 33.441517
v 36.405766 8.000000 26.450336
v 41.109547 8.000000 18.303148
v 44.016644 8.000000 9.356026
v 45.000000 8.000000 0.000000
v 44.016644 8.000000 -9.356026
v 41.109547 8.000000 -18.303148
v 36.405766 8.000000 -26.450336
v 30.110876 8.000000 -33.441517
v 22.500000 8.000000 -38.971142
v 13.905765 8.000000 -42.797543
v 4.703781 8.000000 -44.753487
v -4.703781 8.000000 -44.753487
v -13.905765 8.000000 -42.797543
v -22.500000 8.000000 -38.971142
v -30.110876 8.000000 -33.441517
v -36.405766 8.000000 -26.450336
v -41.109547 8.000000 -18.303148
v -32.278870 1.990000 -6.861086
v -33.000000 1.990000 0.000000
v -30.146999 1.990000 -13.422309
v -26.697561 1.990000 -19.396914
v -22.081310 1.990000 -24.523779
v -16.500000 1.990000 -28.578838
v -10.197561 1.990000 -31.384865
v -3.449439 1.990000 -32.819221
v 3.449439 1.990000 -32.819221
v 10.197561 1.990000 -31.384865
v 16.500000 1.990000 -28.578838
v 22.081310 1.990000 -24.523779
v 26.697561 1.990000 -19.396914
v 30.146999 1.990000 -13.422309
v 32.278870 1.990000 -6.861086
v 33.000000 1.990000 0.000000
v 32.278870 1.990000 6.861086
v 30.146999 1.990000 13.422309
v 26.697561 1.990000 19.396914
v 22.081310 1.990000 24.523779
v 16.500000 1.990000 28.578838
v 10.197561 1.990000 31.384865
v 3.449439 1.990000 32.819221
v -3.449439 1.990000 32.819221
v -10.197561 1.990000 31.384865
v -16.500000 1.990000 28.578838
v -22.081310 1.990000 24.523779
v -26.697561 1.990000 19.396914
v -30.146999 1.990000 13.422309
v -32.278870 1.990000 6.861086
v -31.964956 8.000000 14.231716
v -31.964956 8.000000 -14.231716
v -28.324753 8.000000 -20.536734
v -10.812505 8.000000 33.277466
v -17.463488 8.000000 30.316259
v -34.990002 8.000000 0.000000
v -34.986393 8.000000 0.034305
v -3.657451 8.000000 34.798321
v -10.778764 8.000000 33.284637
v 28.307505 8.000000 20.566607
v 23.435961 8.000000 25.977003
v -34.225384 8.000000 -7.274830
v -34.228989 8.000000 -7.240524
v 31.964956 8.000000 14.231716
v 28.324753 8.000000 20.536734
v 23.412880 8.000000 -26.002638
v 28.284424 8.000000 -20.592239
v -31.975615 8.000000 -14.198910
v 17.495001 8.000000 -30.302229
v 23.384974 8.000000 -26.022913
v -28.307505 8.000000 -20.566607
v -10.812505 8.000000 -33.277466
v -3.691191 8.000000 -34.791149
v -23.412880 8.000000 -26.002638
v -17.522907 8.000000 -30.281954
v 3.657451 8.000000 -34.798321
v 10.778764 8.000000 -33.284637
v -23.435961 8.000000 -25.977003
v -17.495001 8.000000 -30.302229
v -3.657451 8.000000 -34.798321
v -10.844017 8.000000 -33.263435
v 10.812505 8.000000 -33.277466
v 17.463488 8.000000 -30.316259
v 10.812505 8.000000 33.277466
v 3.691191 8.000000 34.791149
v 34.225384 8.000000 7.274830
v 31.975615 8.000000 14.198910
v 28.307505 8.000000 -20.566607
v -34.214725 8.000000 7.307636
v 31.947708 8.000000 -14.261589
v 31.964956 8.000000 -14.231716
v 34.214725 8.000000 -7.307636
v 34.225384 8.000000 -7.274830
v 34.986393 8.000000 -0.034305
v 34.990002 8.000000 0.000000
v 34.228989 8.000000 7.240524
v 23.412880 8.000000 26.002638
v 17.522907 8.000000 30.281954
v 17.495001 8.000000 30.302229
v 10.844017 8.000000 33.263435
v 3.657451 8.000000 34.798321
v -17.495001 8.000000 30.302229
v -23.384974 8.000000 26.022913
v -23.412880 8.000000 26.002638
v -28.284424 8.000000 20.592239
v -28.307505 8.000000 20.566607
v -31.947708 8.000000 14.261589
v -34.225384 8.000000 7.274830
v -32.278870 6.010000 6.861086
v -33.000000 6.010000 0.000000
v -30.146999 6.010000 13.422309
v -26.697561 6.010000 19.396914
v -22.081310 6.010000 24.523779
v -16.500000 6.010000 28.578838
v -10.197561 6.010000 31.384865
v -3.449439 6.010000 32.819221
v 3.449439 6.010000 32.819221
v 10.197561 6.010000 31.384865
v 16.500000 6.010000 28.578838
v 22.081310 6.010000 24.523779
v 26.697561 6.010000 19.396914
v 30.146999 6.010000 13.422309
v 32.278870 6.010000 6.861086
v 33.000000 6.010000 0.000000
v 32.278870 6.010000 -6.861086
v 30.146999 6.010000 -13.422309
v 26.697561 6.010000 -19.396914
v 22.081310 6.010000 -24.523779
v 16.500000 6.010000 -28.578838
v 10.197561 6.010000 -31.384865
v 3.449439 6.010000 -32.819221
v -3.449439 6.010000 -32.819221
v -10.197561 6.010000 -31.384865
v -16.500000 6.010000 -28.578838
v -22.081310 6.010000 -24.523779
v -26.697561 6.010000 -19.396914
v -30.146999 6.010000 -13.422309
v -32.278870 6.010000 -6.861086
vn 0.0000 -1.0000 0.0000
vn -0.9945 0.0000 -0.1045
vn -0.9945 0.0000 0.1045
vn -0.9511 0.0000 0.3090
vn -0.8660 0.0000 0.5000
vn -0.7431 0.0000 0.6691
vn -0.5878 0.0000 0.8090
vn -0.4067 0.0000 0.9135
vn -0.2079 0.0000 0.9781
vn 0.0000 0.0000 1.0000
vn 0.2079 0.0000 0.9781
vn 0.4067 0.0000 0.9135
vn 0.5878 0.0000 0.8090
vn 0.7431 0.0000 0.6691
vn 0.8660 0.0000 0.5000
vn 0.9511 0.0000 0.3090
vn 0.9945 0.0000 0.1045
vn 0.9945 0.0000 -0.1045
vn 0.9511 0.0000 -0.3090
vn 0.8660 0.0000 -0.5000
vn 0.7431 0.0000 -0.6691
vn 0.5878 0.0000 -0.8090
vn 0.4067 0.0000 -0.9135
vn 0.2079 0.0000 -0.9781
vn 0.0000 0.0000 -1.0000
vn -0.2079 0.0000 -0.9781
vn -0.4067 0.0000 -0.9135
vn -0.5878 0.0000 -0.8090
vn -0.7431 0.0000 -0.6691
vn -0.8660 0.0000 -0.5000
vn -0.9511 0.0000 -0.3090
vn 0.7052 -0.7052 0.0741
vn 0.7052 -0.7052 0.0742
vn 0.6743 -0.7052 0.2191
vn 0.6141 -0.7052 0.3545
vn 0.6140 -0.7052 0.3545
vn 0.5269 -0.7052 0.4744
vn 0.5269 -0.7052 0.4745
vn 0.4168 -0.7052 0.5736
vn 0.4168 -0.7051 0.5737
vn 0.2884 -0.7052 0.6477
vn 0.1474 -0.7052 0.6936
vn 0.1474 -0.7052 0.6935
vn 0.0000 -0.7052 0.7090
vn -0.1474 -0.7052 0.6935
vn -0.1474 -0.7052 0.6936
vn -0.2884 -0.7052 0.6477
vn -0.4168 -0.7052 0.5736
vn -0.5270 -0.7050 0.4745
vn -0.5269 -0.7052 0.4744
vn -0.6141 -0.7052 0.3545
vn -0.6743 -0.7052 0.2191
vn -0.7053 -0.7050 0.0741
vn -0.7052 -0.7052 0.0741
vn -0.7052 -0.7052 -0.0742
vn -0.7052 -0.7052 -0.0741
vn -0.6743 -0.7052 -0.2191
vn -0.6140 -0.7052 -0.3545
vn -0.6141 -0.7052 -0.3545
vn -0.5269 -0.7052 -0.4745
vn -0.5269 -0.7052 -0.4744
vn -0.4168 -0.7051 -0.5737
vn -0.4168 -0.7052 -0.5736
vn -0.2884 -0.7052 -0.6477
vn -0.1474 -0.7052 -0.6935
vn -0.1474 -0.7052 -0.6936
vn 0.0000 -0.7052 -0.7090
vn 0.1474 -0.7052 -0.6936
vn 0.2884 -0.7051 -0.6478
vn 0.2884 -0.7052 -0.6477
vn 0.4167 -0.7052 -0.5737
vn 0.4168 -0.7052 -0.5736
vn 0.5269 -0.7052 -0.4744
vn 0.6141 -0.7052 -0.3545
vn 0.6743 -0.7052 -0.2191
vn 0.7052 -0.7052 -0.0741
vn 0.7053 -0.7050 -0.0741
vn 0.0000 1.0000 0.0000
vn 0.0000 1.0000 0.0002
vn 0.7052 0.7052 -0.0741
vn 0.7052 0.7052 -0.0742
vn 0.6743 0.7052 -0.2191
vn 0.6141 0.7052 -0.3545
vn 0.5269 0.7052 -0.4744
vn 0.5269 0.7052 -0.4745
vn 0.4168 0.7052 -0.5736
vn 0.4168 0.7051 -0.5737
vn 0.2884 0.7052 -0.6477
vn 0.2883 0.7052 -0.6477
vn 0.1474 0.7052 -0.6936
vn 0.1474 0.7052 -0.6935
vn 0.0000 0.7052 -0.7090
vn -0.1474 0.7052 -0.6935
vn -0.1474 0.7052 -0.6936
vn -0.2884 0.7051 -0.6478
vn -0.2884 0.7052 -0.6477
vn -0.4168 0.7051 -0.5736
vn -0.4168 0.7052 -0.5736
vn -0.5271 0.7050 -0.4745
vn -0.5269 0.7052 -0.4744
vn -0.6141 0.7052 -0.3545
vn -0.6743 0.7052 -0.2191
vn -0.7053 0.7050 -0.0741
vn -0.7052 0.7052 -0.0741
vn -0.7052 0.7052 0.0742
vn -0.7052 0.7052 0.0741
vn -0.6743 0.7052 0.2191
vn -0.6141 0.7052 0.3545
vn -0.5269 0.7052 0.4745
vn -0.5269 0.7052 0.4744
vn -0.4168 0.7051 0.5736
vn -0.4168 0.7052 0.5736
vn -0.2883 0.7052 0.6477
vn -0.2884 0.7052 0.6477
vn -0.1474 0.7052 0.6935
vn -0.1474 0.7052 0.6936
vn 0.0000 0.7052 0.7090
vn 0.1474 0.7052 0.6936
vn 0.2884 0.7051 0.6478
vn 0.2884 0.7052 0.6477
vn 0.4167 0.7052 0.5737
vn 0.4168 0.7052 0.5736
vn 0.5269 0.7052 0.4744
vn 0.6140 0.7052 0.3545
vn 0.6141 0.7052 0.3545
vn 0.6743 0.7052 0.2191
vn 0.7052 0.7052 0.0741
vn 0.7053 0.7050 0.0741
usemtl None
s off
f 1//1 2//1 3//1
f 3//1 2//1 4//1
f 3//1 4//1 5//1
f 3//1 5//1 6//1
f 3//1 6//1 7//1
f 8//1 7//1 9//1
f 10//1 9//1 11//1
f 12//1 11//1 13//1
f 14//1 13//1 15//1
f 16//1 15//1 17//1
f 18//1 17//1 19//1
f 20//1 19//1 21//1
f 22//1 21//1 23//1
f 24//1 23//1 25//1
f 26//1 25//1 27//1
f 28//1 27//1 29//1
f 30//1 29//1 31//1
f 32//1 31//1 33//1
f 34//1 33//1 35//1
f 36//1 35//1 37//1
f 38//1 37//1 39//1
f 40//1 39//1 41//1
f 42//1 41//1 43//1
f 3//1 43//1 44//1
f 3//1 44//1 45//1
f 3//1 45//1 46//1
f 3//1 46//1 47//1
f 3//1 47//1 48//1
f 49//1 3//1 50//1
f 3//1 51//1 50//1
f 52//1 3//1 53//1
f 3//1 49//1 53//1
f 54//1 3//1 55//1
f 3//1 52//1 55//1
f 56//1 3//1 57//1
f 3//1 54//1 57//1
f 58//1 43//1 59//1
f 3//1 56//1 59//1
f 3//1 59//1 43//1
f 60//1 41//1 42//1
f 58//1 42//1 43//1
f 38//1 39//1 61//1
f 62//1 39//1 40//1
f 60//1 40//1 41//1
f 61//1 39//1 62//1
f 63//1 35//1 36//1
f 34//1 35//1 64//1
f 65//1 35//1 63//1
f 64//1 35//1 65//1
f 66//1 33//1 34//1
f 36//1 37//1 38//1
f 67//1 31//1 32//1
f 68//1 29//1 30//1
f 69//1 27//1 28//1
f 70//1 25//1 26//1
f 71//1 25//1 70//1
f 72//1 25//1 71//1
f 73//1 23//1 24//1
f 22//1 23//1 73//1
f 74//1 21//1 22//1
f 75//1 19//1 20//1
f 24//1 25//1 72//1
f 76//1 17//1 18//1
f 26//1 27//1 69//1
f 77//1 15//1 16//1
f 28//1 29//1 68//1
f 78//1 13//1 14//1
f 12//1 13//1 79//1
f 79//1 13//1 78//1
f 80//1 11//1 12//1
f 14//1 15//1 77//1
f 81//1 9//1 10//1
f 82//1 9//1 81//1
f 83//1 9//1 82//1
f 84//1 7//1 8//1
f 85//1 3//1 86//1
f 87//1 7//1 84//1
f 86//1 7//1 87//1
f 3//1 7//1 86//1
f 3//1 85//1 88//1
f 16//1 17//1 76//1
f 51//1 3//1 88//1
f 8//1 9//1 83//1
f 10//1 11//1 80//1
f 18//1 19//1 75//1
f 20//1 21//1 74//1
f 30//1 31//1 67//1
f 32//1 33//1 66//1
f 1//2 89//2 2//2
f 2//2 89//2 90//2
f 1//3 3//3 89//3
f 89//3 3//3 91//3
f 3//4 48//4 91//4
f 91//4 48//4 92//4
f 48//5 47//5 92//5
f 92//5 47//5 93//5
f 47//6 46//6 93//6
f 93//6 46//6 94//6
f 94//7 46//7 45//7
f 95//7 94//7 45//7
f 95//8 45//8 44//8
f 96//8 95//8 44//8
f 96//9 44//9 43//9
f 97//9 96//9 43//9
f 97//10 43//10 41//10
f 98//10 97//10 41//10
f 98//11 41//11 39//11
f 99//11 98//11 39//11
f 99//12 39//12 37//12
f 100//12 99//12 37//12
f 100//13 37//13 35//13
f 101//13 100//13 35//13
f 101//14 35//14 33//14
f 102//14 101//14 33//14
f 102//15 33//15 31//15
f 103//15 102//15 31//15
f 103//16 31//16 29//16
f 104//16 103//16 29//16
f 104//17 29//17 27//17
f 105//17 104//17 27//17
f 27//18 25//18 106//18
f 105//18 27//18 106//18
f 25//19 23//19 107//19
f 106//19 25//19 107//19
f 23//20 21//20 108//20
f 107//20 23//20 108//20
f 21//21 19//21 109//21
f 108//21 21//21 109//21
f 17//22 110//22 19//22
f 19//22 110//22 109//22
f 15//23 111//23 17//23
f 17//23 111//23 110//23
f 13//24 112//24 15//24
f 15//24 112//24 111//24
f 11//25 113//25 13//25
f 13//25 113//25 112//25
f 9//26 114//26 11//26
f 11//26 114//26 113//26
f 7//27 115//27 9//27
f 9//27 115//27 114//27
f 6//28 116//28 7//28
f 7//28 116//28 115//28
f 5//29 117//29 6//29
f 6//29 117//29 116//29
f 4//30 118//30 5//30
f 5//30 118//30 117//30
f 2//31 90//31 4//31
f 4//31 90//31 118//31
f 51//32 119//32 120//32
f 50//33 51//33 120//33
f 88//32 119//32 51//32
f 121//34 119//34 85//34
f 85//34 119//34 88//34
f 86//34 121//34 85//34
f 122//35 121//35 87//35
f 87//36 121//36 86//36
f 84//35 122//35 87//35
f 123//37 122//37 8//37
f 8//38 122//38 84//38
f 83//37 123//37 8//37
f 124//39 123//39 82//39
f 82//40 123//40 83//40
f 81//39 124//39 82//39
f 125//41 124//41 10//41
f 10//41 124//41 81//41
f 80//41 125//41 10//41
f 126//42 125//42 12//42
f 12//43 125//43 80//43
f 79//42 126//42 12//42
f 78//44 127//44 126//44
f 79//44 78//44 126//44
f 14//45 128//45 78//45
f 78//46 128//46 127//46
f 77//46 128//46 14//46
f 16//47 129//47 77//47
f 77//47 129//47 128//47
f 76//47 129//47 16//47
f 18//48 130//48 76//48
f 76//48 130//48 129//48
f 75//48 130//48 18//48
f 20//49 131//49 75//49
f 75//50 131//50 130//50
f 74//50 131//50 20//50
f 22//51 132//51 74//51
f 74//51 132//51 131//51
f 73//51 132//51 22//51
f 24//52 133//52 73//52
f 73//52 133//52 132//52
f 72//52 133//52 24//52
f 71//53 134//53 72//53
f 72//54 134//54 133//54
f 71//54 70//54 134//54
f 70//55 26//55 134//55
f 134//56 26//56 135//56
f 26//56 69//56 135//56
f 69//57 28//57 135//57
f 135//57 28//57 136//57
f 28//57 68//57 136//57
f 68//58 30//58 136//58
f 136//59 30//59 137//59
f 30//59 67//59 137//59
f 67//60 32//60 137//60
f 137//61 32//61 138//61
f 32//61 66//61 138//61
f 66//62 34//62 138//62
f 138//63 34//63 139//63
f 34//63 64//63 139//63
f 64//64 65//64 139//64
f 139//64 65//64 140//64
f 65//64 63//64 140//64
f 63//65 36//65 140//65
f 140//66 36//66 141//66
f 36//66 38//66 141//66
f 141//67 38//67 142//67
f 142//67 38//67 61//67
f 61//68 62//68 142//68
f 142//68 62//68 143//68
f 143//68 62//68 40//68
f 40//69 60//69 143//69
f 143//70 60//70 144//70
f 144//70 60//70 42//70
f 42//71 58//71 144//71
f 144//72 58//72 145//72
f 145//72 58//72 59//72
f 59//73 56//73 145//73
f 145//73 56//73 146//73
f 146//73 56//73 57//73
f 57//74 54//74 146//74
f 146//74 54//74 147//74
f 147//74 54//74 55//74
f 55//75 52//75 147//75
f 147//75 52//75 148//75
f 148//75 52//75 53//75
f 120//76 148//76 53//76
f 49//77 120//77 53//77
f 120//76 49//76 50//76
f 90//78 89//78 91//78
f 93//78 90//78 92//78
f 92//78 90//78 91//78
f 94//78 90//78 93//78
f 95//78 90//78 94//78
f 149//78 90//78 95//78
f 150//78 151//78 90//78
f 114//78 90//78 113//78
f 115//78 90//78 114//78
f 116//78 90//78 115//78
f 117//78 90//78 116//78
f 118//78 90//78 117//78
f 152//78 153//78 97//78
f 154//78 90//78 155//78
f 156//78 157//78 98//78
f 158//78 159//78 102//78
f 160//78 90//78 161//78
f 162//78 163//78 103//78
f 164//78 165//78 108//78
f 150//78 90//78 166//78
f 167//78 168//78 109//78
f 169//78 90//78 151//78
f 170//78 171//78 111//78
f 172//78 173//78 113//78
f 174//78 175//78 110//78
f 172//78 90//78 176//78
f 113//78 90//78 172//78
f 113//78 177//78 112//78
f 113//78 173//78 177//78
f 178//78 174//78 111//78
f 112//78 170//78 111//78
f 112//78 179//78 170//78
f 171//79 178//79 111//79
f 111//78 174//78 110//78
f 169//78 176//78 90//78
f 110//78 175//78 109//78
f 175//78 180//78 109//78
f 180//78 181//78 109//78
f 181//78 167//78 109//78
f 109//78 168//78 108//78
f 182//78 183//78 99//78
f 168//78 164//78 108//78
f 184//78 185//78 104//78
f 108//78 165//78 107//78
f 177//78 179//78 112//78
f 165//78 186//78 107//78
f 149//78 187//78 90//78
f 107//78 188//78 106//78
f 188//78 189//78 106//78
f 106//78 190//78 105//78
f 190//78 191//78 105//78
f 105//78 192//78 104//78
f 192//78 193//78 104//78
f 193//78 194//78 104//78
f 194//78 184//78 104//78
f 104//78 185//78 103//78
f 185//78 162//78 103//78
f 103//78 163//78 102//78
f 163//78 158//78 102//78
f 186//78 188//78 107//78
f 102//78 159//78 101//78
f 159//78 195//78 101//78
f 189//78 190//78 106//78
f 101//78 196//78 100//78
f 196//78 197//78 100//78
f 191//78 192//78 105//78
f 100//78 198//78 99//78
f 198//78 182//78 99//78
f 99//78 183//78 98//78
f 183//78 199//78 98//78
f 199//78 156//78 98//78
f 98//78 157//78 97//78
f 157//78 152//78 97//78
f 195//78 196//78 101//78
f 97//78 153//78 96//78
f 153//78 200//78 96//78
f 197//78 198//78 100//78
f 200//78 201//78 96//78
f 201//78 202//78 96//78
f 96//78 203//78 95//78
f 203//78 204//78 95//78
f 204//78 205//78 95//78
f 205//78 149//78 95//78
f 206//78 90//78 187//78
f 202//78 203//78 96//78
f 206//78 155//78 90//78
f 154//78 161//78 90//78
f 160//78 166//78 90//78
f 121//1 122//1 119//1
f 119//1 122//1 123//1
f 119//1 123//1 124//1
f 119//1 124//1 125//1
f 119//1 125//1 126//1
f 119//1 126//1 127//1
f 119//1 127//1 128//1
f 119//1 128//1 129//1
f 119//1 129//1 130//1
f 119//1 130//1 131//1
f 119//1 131//1 132//1
f 119//1 132//1 133//1
f 119//1 133//1 134//1
f 119//1 134//1 135//1
f 119//1 135//1 136//1
f 119//1 136//1 137//1
f 119//1 137//1 138//1
f 119//1 138//1 139//1
f 119//1 139//1 140//1
f 119//1 140//1 141//1
f 119//1 141//1 142//1
f 119//1 142//1 143//1
f 119//1 143//1 144//1
f 119//1 144//1 145//1
f 119//1 145//1 146//1
f 119//1 146//1 147//1
f 119//1 147//1 148//1
f 119//1 148//1 120//1
f 206//80 207//80 155//80
f 155//80 207//80 208//80
f 154//81 155//81 208//81
f 187//82 209//82 207//82
f 206//82 187//82 207//82
f 149//82 209//82 187//82
f 205//83 210//83 209//83
f 149//83 205//83 209//83
f 204//83 210//83 205//83
f 203//84 211//84 210//84
f 204//85 203//85 210//85
f 202//84 211//84 203//84
f 201//86 212//86 211//86
f 202//87 201//87 211//87
f 200//86 212//86 201//86
f 153//88 213//88 212//88
f 200//89 153//89 212//89
f 152//88 213//88 153//88
f 157//90 214//90 213//90
f 152//91 157//91 213//91
f 156//90 214//90 157//90
f 215//92 214//92 199//92
f 199//92 214//92 156//92
f 199//93 183//93 216//93
f 215//94 199//94 216//94
f 182//94 216//94 183//94
f 182//95 198//95 217//95
f 216//96 182//96 217//96
f 197//96 217//96 198//96
f 197//97 196//97 218//97
f 217//98 197//98 218//98
f 195//98 218//98 196//98
f 195//99 159//99 219//99
f 218//100 195//100 219//100
f 158//100 219//100 159//100
f 158//101 163//101 220//101
f 219//101 158//101 220//101
f 162//101 220//101 163//101
f 162//102 185//102 221//102
f 220//102 162//102 221//102
f 184//102 221//102 185//102
f 194//103 222//103 184//103
f 184//104 222//104 221//104
f 194//104 193//104 222//104
f 193//105 192//105 222//105
f 222//106 192//106 223//106
f 192//106 191//106 223//106
f 223//107 191//107 190//107
f 224//107 223//107 190//107
f 190//107 189//107 224//107
f 224//108 189//108 188//108
f 225//108 224//108 188//108
f 188//108 186//108 225//108
f 225//109 186//109 165//109
f 226//110 225//110 165//110
f 165//110 164//110 226//110
f 226//111 164//111 168//111
f 227//112 226//112 168//112
f 168//112 167//112 227//112
f 227//113 167//113 181//113
f 228//114 227//114 181//114
f 181//114 180//114 228//114
f 228//115 180//115 175//115
f 229//116 228//116 175//116
f 175//116 174//116 229//116
f 230//117 229//117 174//117
f 178//117 230//117 174//117
f 230//118 178//118 171//118
f 231//118 230//118 171//118
f 231//118 171//118 170//118
f 231//119 170//119 179//119
f 232//120 231//120 179//120
f 232//120 179//120 177//120
f 232//121 177//121 173//121
f 233//122 232//122 173//122
f 233//122 173//122 172//122
f 233//123 172//123 176//123
f 234//123 233//123 176//123
f 234//123 176//123 169//123
f 234//124 169//124 151//124
f 235//125 234//125 151//125
f 235//125 151//125 150//125
f 235//126 150//126 166//126
f 236//126 235//126 166//126
f 236//126 166//126 160//126
f 208//127 236//127 160//127
f 161//128 208//128 160//128
f 208//127 161//127 154//127
f 207//78 209//78 210//78
f 212//78 207//78 211//78
f 211//78 207//78 210//78
f 213//78 207//78 212//78
f 214//78 207//78 213//78
f 215//78 207//78 214//78
f 216//78 207//78 215//78
f 217//78 207//78 216//78
f 218//78 207//78 217//78
f 219//78 207//78 218//78
f 220//78 207//78 219//78
f 221//78 207//78 220//78
f 222//78 207//78 221//78
f 223//78 207//78 222//78
f 224//78 207//78 223//78
f 225//78 207//78 224//78
f 226//78 207//78 225//78
f 227//78 207//78 226//78
f 228//78 207//78 227//78
f 229//78 207//78 228//78
f 230//78 207//78 229//78
f 231//78 207//78 230//78
f 232//78 207//78 231//78
f 233//78 207//78 232//78
f 234//78 207//78 233//78
f 235//78 207//78 234//78
f 236//78 207//78 235//78
f 208//78 207//78 236//78
